/* XPM */
static char *icon[] = {
/* columns rows colors chars-per-pixel */
"48 48 255 2",
"   c black",
".  c gray100",
"X  c #8B8B8B",
"o  c #FFFEFF",
"O  c #D8D7D8",
"+  c #C9C8CA",
"@  c #C8C7C9",
"#  c #FCFBFE",
"$  c #D9D8DB",
"%  c #E3E1E8",
"&  c #EFEDF5",
"*  c #EBE9F1",
"=  c #8C8B8F",
"-  c #F8F7FB",
";  c #EBEAEE",
":  c #B3B2B7",
">  c #EEEDF3",
",  c #E8E7ED",
"<  c #E5E4EA",
"1  c #F3F2F9",
"2  c #DDDCE4",
"3  c #F5F5F9",
"4  c #DCDCE0",
"5  c #FAFAFD",
"6  c #F4F4F7",
"7  c #E1E1E4",
"8  c #8E8E90",
"9  c #FCFCFE",
"0  c #D0D0D2",
"q  c #CBCBCD",
"w  c #C6C6C8",
"e  c #EAEAEB",
"r  c #DBDBDC",
"t  c #D7D7D8",
"y  c #ACACAD",
"u  c #919192",
"i  c #8B8B8C",
"p  c #89898A",
"a  c #E3E4E3",
"s  c #FCFDFB",
"d  c #C8CAC2",
"f  c #F6F7F3",
"g  c #BCC0AE",
"h  c #F7FBE9",
"j  c #A6AF81",
"k  c #AEB78A",
"l  c #D8DCC8",
"z  c #D7DACB",
"x  c #E5E8DA",
"c  c #95AC27",
"v  c #A4BD2E",
"b  c #94AA2B",
"n  c #8EA32A",
"m  c #7F9226",
"M  c #BBD63A",
"N  c #ADC636",
"B  c #758625",
"V  c #BFDA3E",
"C  c #B9D43D",
"Z  c #B9D33D",
"A  c #B4CD3C",
"S  c #B3CC3B",
"D  c #B1CA3B",
"F  c #B3CC3C",
"G  c #B0C93B",
"H  c #AFC83B",
"J  c #AAC239",
"K  c #CAE645",
"L  c #A4BB38",
"P  c #A0B637",
"I  c #9DB336",
"U  c #9BB036",
"Y  c #97AC35",
"T  c #7C8D2B",
"R  c #768629",
"E  c #B0C83E",
"W  c #9CB137",
"Q  c #8A9D31",
"!  c #879931",
"~  c #77872C",
"^  c #BFD847",
"/  c #9AAE3B",
"(  c #839432",
")  c #78882E",
"_  c #CCE650",
"`  c #9EAF4D",
"'  c #A5B559",
"]  c #B0C063",
"[  c #C3D472",
"{  c #D5E87E",
"}  c #B7C47D",
"|  c #9DA76E",
" . c #BDC78D",
".. c #E6F2B0",
"X. c #B4BC90",
"o. c #D0D9A7",
"O. c #B8BF9A",
"+. c #9CA186",
"@. c #C4CAAA",
"#. c #91957F",
"$. c #CBD0B5",
"%. c #A2A690",
"&. c #B9BDA8",
"*. c #C3C7B2",
"=. c #D9DDC6",
"-. c #D5D9C3",
";. c #EEF0E5",
":. c #98AE2A",
">. c #BEDA35",
",. c #B3CD32",
"<. c #9DB42C",
"1. c #C9E63C",
"2. c #7A8B24",
"3. c #9FB530",
"4. c #788924",
"5. c #9AB02F",
"6. c #97AC2F",
"7. c #859829",
"8. c #6B7A21",
"9. c #A2B933",
"0. c #C2DD3F",
"q. c #BCD63D",
"w. c #92A62F",
"e. c #C7E241",
"r. c #C4DE40",
"t. c #BDD73E",
"y. c #BBD53D",
"u. c #B8D13C",
"i. c #B7D03C",
"p. c #AEC639",
"a. c #A6BC36",
"s. c #6E7D24",
"d. c #BAD33D",
"f. c #B6CE3C",
"g. c #B5CE3C",
"h. c #B4CC3B",
"j. c #B2CA3B",
"k. c #B0C73A",
"l. c #AFC73A",
"z. c #A7BE37",
"x. c #97AB32",
"c. c #AEC53A",
"v. c #ADC43A",
"b. c #AAC139",
"n. c #D7F449",
"m. c #ACC33A",
"M. c #ABC23A",
"N. c #AAC13A",
"B. c #A9C039",
"V. c #A8BF39",
"C. c #A6BC38",
"Z. c #A2B837",
"A. c #A1B737",
"S. c #CDE846",
"D. c #A9C03A",
"F. c #A7BD39",
"G. c #9EB336",
"H. c #9FB437",
"J. c #95A934",
"K. c #D1ED4A",
"L. c #B4CC3F",
"P. c #9AAE36",
"I. c #92A535",
"U. c #8D9F33",
"Y. c #C9E24B",
"T. c #808F2F",
"R. c #7D8D2F",
"E. c #73812B",
"W. c #707E2B",
"Q. c #74822D",
"!. c #6E7B2B",
"~. c #BCD14A",
"^. c #72802D",
"/. c #E6FF5B",
"(. c #DDF758",
"). c #D5EF55",
"_. c #A0B140",
"`. c #95A641",
"'. c #7C8937",
"]. c #828F42",
"[. c #909C56",
"{. c #ECFE8F",
"}. c #B0BB76",
"|. c #919965",
" X c #C6CF98",
".X c #F2FCC0",
"XX c #D0D4BB",
"oX c #E3E7CE",
"OX c #D3D6C3",
"+X c #DBDDD0",
"@X c #FDFFF0",
"#X c #F2F3EC",
"$X c #B7B7B4",
"%X c #F7F7F4",
"&X c #8B8B89",
"*X c #DDDDDB",
"=X c #D7D7D6",
"-X c #90908F",
";X c #888887",
":X c #FEFEFE",
">X c #FDFDFD",
",X c gray98",
"<X c #F8F8F8",
"1X c #F6F6F6",
"2X c #F4F4F4",
"3X c #F3F3F3",
"4X c gray94",
"5X c #EEEEEE",
"6X c gray93",
"7X c #E9E9E9",
"8X c #E7E7E7",
"9X c #E6E6E6",
"0X c #E4E4E4",
"qX c gray89",
"wX c #E2E2E2",
"eX c #E1E1E1",
"rX c #DFDFDF",
"tX c gainsboro",
"yX c gray86",
"uX c #DADADA",
"iX c #D8D8D8",
"pX c gray83",
"aX c LightGray",
"sX c #D0D0D0",
"dX c gray81",
"fX c gray80",
"gX c #CBCBCB",
"hX c gray79",
"jX c gray78",
"kX c #C5C5C5",
"lX c gray76",
"zX c #C1C1C1",
"xX c gray75",
"cX c gray74",
"vX c gray73",
"bX c #B7B7B7",
"nX c #B4B4B4",
"mX c #B1B1B1",
"MX c #AFAFAF",
"NX c gray67",
"BX c #A9A9A9",
"VX c #A5A5A5",
"CX c #A2A2A2",
"ZX c #9F9F9F",
"AX c gray61",
"SX c gray60",
"DX c #959595",
"FX c #929292",
"GX c #909090",
"HX c #8E8E8E",
"JX c #8D8D8D",
"KX c gray55",
"LX c gray54",
"PX c #898989",
"IX c gray53",
/* pixels */
"X X X X X X X X X X X X X X X X X X X X X X X X X X X X X X X X X X X X X X X X X X X X X X X X ",
"X X X X X X X X X X X X X X X X X X X X X X LXPXPXLXLXX X X X X X X X X X X X X X X X X X X X X ",
"X X X X X X X X X X X X X X X X X LXIXIX= ;XKX-X-X8 8 IXIX;XLXX X X X X X X X X X X X X X X X X ",
"X X X X X X X X X X X X X X X ;XIXGXZX: +.%.w @ + xX|.%.NXSXJX;XPXX X X X X X X X X X X X X X X ",
"X X X X X X X X X X X X X IX;XAXbXq 2 &.j rXr r 2 |.j $ 0 gXxXy DX;XPXX X X X X X X X X X X X X ",
"X X X X X X X X X X X PXIXSXxXO % 7 $.].' ' ` ' ` |.< r uXpXaXfXkXMXDX;XLXX X X X X X X X X X X ",
"X X X X X X X X X X IXHXnX=X% 7  X' w.R w.3.3.<.:.z ; qXeXtXuXpX0 fXzXVXKXPXX X X X X X X X X X ",
"X X X X X X X X X IXSXhXrX* OX` n b G.R.P.B.V.v [ 1 e 7X7X0XeXrXuXaXdXjXmXGX;XX X X X X X X X X ",
"X X X X X X X X IXZXaXeX* @.U.w.U A.C.R.I l.p.N oX3 4X5X6Xe 8XqXrXuXpXdXjXbXDX;XX X X X X X X X ",
"X X X X X X X IXZXt wX& @.7.w.W Z.F.m.T.Z.g.,.[ ,X<X1X3X3X5X6X7X9XeXtX=XdXhXvXFX;XX X X X X X X ",
"X X X X X X IXSXpXa > z ! n P.P F.m.l.T.z.Z ,...o ,X<X<X1X3X4X6X7X9XeXtX=XdXjXnXGXPXX X X X X X ",
"X X X X X PXHXgX0Xe 4X[.7.Y I L b.k.G R.l.M ^ h o >X,X,X<X1X3X4X5X7X9XeXyXpXfXkXy LXLXX X X X X ",
"X X X X X IXbXqX8X3 @.m I.P.A.V.c.h.p.T.Z >.{ . . . :X>X,X<X1X2X4X6X7X0XrXuXaXgXzXZX;XX X X X X ",
"X X X X IXAXtX9X5X3 [.7.J.W L J G u.V.( r.1..Xo . . . . >X,X<X1X3X4X6X8XqXtXt dXjXbXGXPXX X X X ",
"X X X X IXlX9Xe 2X8X( Q J.H.C.v.j.y.W U.S.(.@X. . . . . . >X,X<X1X4X5Xe 9XeXyXpXgXzXVXPXX X X X ",
"X X X IXAXrX7X4X# OX2.U.Y P z.c.F t.U.W n.{.:X. . . . . . :Xs ,X<X2X4X6X7XqXrXiXsXjXbXu PXX X X ",
"X X X IXcX9Xe 3X. @.4.U.Y P z.p.A C T.E n..X. . . . . . . . :Xs ,X1X3X4Xe 9XeXuXaXgXxXZXPXX X X ",
"X X LX-XaX8X5X2X. @.4.U.Y P z.p.f.H R.V ).@X. . . . . . . . . >X,X1X3X4X6X8XwXtXpXfXlXy X X X X ",
"X X IXCXeX7X4X1X. -.B Q J.H.F.v.u.W ! e._ ..h . . . . . . . . :Xs <X1X4X6X7X0XrXt dXkXbXFXPXX X ",
"X X IXnX0X6X3X<X. ;.'.! J.I L m.g.! I 0.r.1.~.} ;.. . . . . . . >X,X1X3X5Xe 9XeXuX0 @ cXSXPXX X ",
"X X ;XzX9X6X2X,X:X. | 2.I.P.Z.M.F.R.j.t.V r.M c / o.. . . . . . >X,X<X3X4Xe 9XeXuXaXgXxXCXPXX X ",
"X LXX gX8X5X1X,X:X. -.B Q J.G.b.U.Q Z Z y.0.M.L 9.c } s . . . . :X,X<X2X4Xe 8XeXyXpXgXzXBXLXX X ",
"X LXHX0 7X4X1X,X. :X:X| 2.I.U G.~ Z.h.g.u.y.I.v.v.z.:.} >X. . . :X,X<X2X4X6X8XeXyXpXfXzXNXX X X ",
"X PXGXaX7X4X1X,X. . . ;.[.m J.T.( J v.G f.z.( i.j.p.b.:. X. . . :X,X<X2X4X6X8XeXyXpXfXlXy X LXX ",
"X PXGXaX7X4X1X,X:X. . . k ~ B ~ P.Z.C.N.j.! ! t.i.F p.a.5.oX. . :X,X<X2X4Xe 8XeXyXpXgXzXNXX X X ",
"X LXJXdX8X5X1X,X:X. . . | -.k 7.n x.H.L A.W.J.0.y.Z S c.<.] >X. >X,X<X3X4Xe 8XeXyXpXgXzXBXLXX X ",
"X LXLXhX9X6X2X,X>X. . f [.#X. +X}.`.J.U ( !.Z.e.t.y.i.D B.5.oX. >X,X1X3X5Xe 9XrXuXaXhXxXVXPXX X ",
"X X IXxX9Xe 3X<Xs . . x [.s . . . =.T T.^.W.L.e.V t.d.A c.<. .. s <X1X4X6X7X0XrXiX0 @ cXZXPXX X ",
"X X IXMXwX7X4X1X,X:X. -.| . . . . $.8.^.^.) Y.K 0.V y.f.H 9.' %X5 <X2X4X6X7XqXtXt dXjXvXSXPXX X ",
"X X IXZXtX9X5X3X<Xs . @.j . . . . X.8.Q.W.! (.S.r.V q.i.G a.W ;.# 1X3X4Xe 9XeXyXpXfXlXnXGXLXX X ",
"X X LXHXdX0Xe 4X1X,X. X.X.. . . . | 8.Q.!._./.S.r.V q.i.D z.P.x # 2X4X6X7X0XrXuXaXhXxXBXLXX X X ",
"X X X IXnXeX8X5X3X<X. k @.. . . :X[.s.Q.!.~.(.K r.V q.i.G z.Y oX5 3X5Xe 9XwXtX=XdXjXvXAXPXX X X ",
"X X X ;XSXiXqXe 4X2X. j $.:X. . %X].s.Q.Q.Y.K.e.0.V C g.H a./ x 3 4X6X7X0XrXuXaXgXzXmXHXLXX X X ",
"X X X X IXvXrX9X6X4X# | -.:X:X. ;.'.E.W.( K e.0.V t.u.S m.3.` 5X3X6X7X9XeXtX=XdXjXcXZX;XX X X X ",
"X X X X ;XDXpXeX8X6X- | -.. s . x Q.E.!.Y e.V V t.C g.H D.:.}.3 5Xe 8XqXrXiX0 gXzXmXHXLXX X X X ",
"X X X X X IXMXtXeX7X1 | -.9 <X. l W.E.^.v.0.t.q.Z i.D m.L n XX1 e 8XqXrXuXaXfXkXbXSX;XX X X X X ",
"X X X X X LXLXzXtXwX> | XX- 2Xo XXs.W.R.Z y.Z i.g.j.v.F.:.' & e 8XqXrXuXpXdXjXcXVXPXLXX X X X X ",
"X X X X X X ;XFXgXtX, j *.6 4X5 $.s.!.J.C g.A j.G m.F.5.I.+X> 9XwXrXuXpXdXjXxXNXKXLXX X X X X X ",
"X X X X X X X IXDXgX% k O.> e 6 @.s.Q.V.D H p.v.b.L 5.I.XX> a wXrXiXpXdXjXzXMXHXPXX X X X X X X ",
"X X X X X X X X IXDXq g j , 0X> @.8.! m.B.V.F.L 3.c ` OX* wXrXtXiXaXfXjXxXy HXPXX X X X X X X X ",
"X X X X X X X X X IXu $X| $ tX< *.s.b <.<.<.:.6.`  .rX< rXyXiXpXsXgXkXcXBXJXPXX X X X X X X X X ",
"X X X X X X X X X X ;X8 #.g t 4 *.[. X}.}.}  .$.*X% rXuXiXpXsXfX@ lXnXSXLXLXX X X X X X X X X X ",
"X X X X X X X X X X X LXp -XmX+ d |.2 2 2 2 2 4 $ =XpXaXdXgX@ lXbXCXHX;XX X X X X X X X X X X X ",
"X X X X X X X X X X X X X p IXFXy |.&.0 dXsXsXdXdXfXgX@ kXcXmXZX-X;XLXX X X X X X X X X X X X X ",
"X X X X X X X X X X X X X X X PXPXi JXCXNXmXbXbXbXnXMXVXAXFXX ;XLXX X X X X X X X X X X X X X X ",
"X X X X X X X X X X X X X X X X X i LX;X;XPXLXX X LXPX;X;XPXX X X X X X X X X X X X X X X X X X ",
"X X X X X X X X X X X X X X X X X X X X X X X LXLXX X X X X X X X X X X X X X X X X X X X X X X ",
"X X X X X X X X X X X X X X X X X X X X X X X X X X X X X X X X X X X X X X X X X X X X X X X X "
};
